<svg width="63" height="62" viewBox="0 0 63 62" fill="none" xmlns="http://www.w3.org/2000/svg">
    <path d="M5.90039 49.1521L10.5084 53.7601M12.8124 35.3281L15.1164 44.5441M15.1164 44.5441L24.3324 46.8481M15.1164 44.5441L8.20439 51.4561M42.7643 9.98417L19.7244 33.0241L20.8764 38.7841L26.6364 39.9361L49.6763 16.8962L51.9803 7.68018L42.7643 9.98417Z" stroke="white" stroke-width="5.11999" stroke-linecap="round" stroke-linejoin="round"/>
    <path d="M57.1004 49.1521L52.4925 53.7601M50.1885 35.3281L47.8845 44.5441M47.8845 44.5441L54.7965 51.4561M47.8845 44.5441L43.2765 45.6961L38.6685 46.8481M24.5885 28.1601L13.3245 16.8962L11.0205 7.68018L20.2365 9.98417L31.5005 21.2482M31.7565 35.3281L36.3645 39.9361L42.1245 38.7841L43.2765 33.0241L38.6685 28.4161" stroke="white" stroke-width="5.11999" stroke-linecap="round" stroke-linejoin="round"/>
    </svg>
    