<svg width="63" height="62" viewBox="0 0 63 62" fill="none" xmlns="http://www.w3.org/2000/svg">
    <path
        d="M43.0199 26.8801H37.2599C36.7507 26.8801 36.2623 26.6778 35.9022 26.3177C35.5422 25.9577 35.3399 25.4693 35.3399 24.9601C35.3399 24.4509 35.5422 23.9625 35.9022 23.6024C36.2623 23.2424 36.7507 23.0401 37.2599 23.0401H43.0199C43.5291 23.0401 44.0175 23.2424 44.3775 23.6024C44.7376 23.9625 44.9399 24.4509 44.9399 24.9601C44.9399 25.4693 44.7376 25.9577 44.3775 26.3177C44.0175 26.6778 43.5291 26.8801 43.0199 26.8801ZM25.7399 23.0401H23.8199V21.1201C23.8199 20.6109 23.6176 20.1225 23.2575 19.7624C22.8975 19.4024 22.4091 19.2001 21.8999 19.2001C21.3907 19.2001 20.9023 19.4024 20.5423 19.7624C20.1822 20.1225 19.9799 20.6109 19.9799 21.1201V23.0401H18.0599C17.5507 23.0401 17.0623 23.2424 16.7023 23.6024C16.3422 23.9625 16.1399 24.4509 16.1399 24.9601C16.1399 25.4693 16.3422 25.9577 16.7023 26.3177C17.0623 26.6778 17.5507 26.8801 18.0599 26.8801H19.9799V28.8001C19.9799 29.3093 20.1822 29.7976 20.5423 30.1577C20.9023 30.5178 21.3907 30.7201 21.8999 30.7201C22.4091 30.7201 22.8975 30.5178 23.2575 30.1577C23.6176 29.7976 23.8199 29.3093 23.8199 28.8001V26.8801H25.7399C26.2491 26.8801 26.7375 26.6778 27.0975 26.3177C27.4576 25.9577 27.6599 25.4693 27.6599 24.9601C27.6599 24.4509 27.4576 23.9625 27.0975 23.6024C26.7375 23.2424 26.2491 23.0401 25.7399 23.0401ZM58.7351 48.156C58.0115 49.1894 57.0704 50.0517 55.9779 50.6824C54.8854 51.3132 53.6681 51.6971 52.4114 51.8071C51.1547 51.9171 49.8892 51.7506 48.7037 51.3193C47.5183 50.888 46.4416 50.2023 45.5495 49.3104C45.5207 49.2816 45.4919 49.2528 45.4655 49.2216L35.9351 38.4001H27.0551L17.5343 49.2216L17.4503 49.3104C15.8284 50.9289 13.6312 51.8385 11.3399 51.84C10.0786 51.8396 8.83262 51.5629 7.6896 51.0296C6.54657 50.4962 5.53419 49.719 4.72358 48.7526C3.91296 47.7862 3.32376 46.6541 2.99738 45.4357C2.671 44.2173 2.61535 42.9422 2.83433 41.7001C2.83317 41.6889 2.83317 41.6776 2.83433 41.6665L6.76312 21.4849C7.34784 18.1563 9.08694 15.1402 11.6749 12.9666C14.2628 10.793 17.5339 9.60106 20.9135 9.6001H42.0599C45.4293 9.60547 48.6904 10.7906 51.277 12.9498C53.8637 15.109 55.6125 18.1059 56.2199 21.4201V21.4633L60.1487 41.6641C60.1498 41.6752 60.1498 41.6865 60.1487 41.6977C60.352 42.8142 60.3317 43.9599 60.0891 45.0685C59.8464 46.1771 59.3862 47.2266 58.7351 48.156ZM42.0599 34.5601C44.8606 34.5601 47.5465 33.4475 49.5269 31.4671C51.5073 29.4867 52.6199 26.8008 52.6199 24.0001C52.6199 21.1994 51.5073 18.5134 49.5269 16.533C47.5465 14.5527 44.8606 13.4401 42.0599 13.4401H20.9135C18.4342 13.4423 16.0351 14.3188 14.1382 15.9154C12.2414 17.512 10.9684 19.7263 10.5431 22.1689V22.2001L6.61192 42.3817C6.43816 43.3822 6.5862 44.4121 7.03475 45.3231C7.4833 46.2342 8.20926 46.9796 9.1082 47.452C10.0071 47.9244 11.0327 48.0995 12.0375 47.9522C13.0423 47.8049 13.9744 47.3427 14.6999 46.632L24.7607 35.2105C24.9408 35.0061 25.1624 34.8424 25.4107 34.7303C25.659 34.6181 25.9283 34.5601 26.2007 34.5601H42.0599ZM56.3879 42.3817L54.2903 31.5817C53.0002 33.6649 51.1998 35.3844 49.0597 36.5776C46.9195 37.7707 44.5102 38.398 42.0599 38.4001H41.0519L48.2999 46.6344C48.8463 47.166 49.5111 47.5604 50.2395 47.7852C50.9679 48.0101 51.7393 48.059 52.4903 47.928C53.7414 47.7072 54.8539 46.9994 55.584 45.9598C56.3141 44.9201 56.6024 43.6334 56.3855 42.3817H56.3879Z"
        fill="white" />
</svg>
    