<svg width="62" height="62" viewBox="0 0 62 62" fill="none" xmlns="http://www.w3.org/2000/svg">
    <g clip-path="url(#clip0_1_9301)">
    <path d="M13.7253 59.2453H26.891M20.3082 59.2453V50.4681M2.75391 28.5253V46.0796C2.75391 47.2435 3.21627 48.3597 4.03929 49.1828C4.86231 50.0058 5.97856 50.4681 7.14248 50.4681H33.4739C34.6378 50.4681 35.7541 50.0058 36.5771 49.1828C37.4001 48.3597 37.8625 47.2435 37.8625 46.0796V28.5253C37.8625 27.3614 37.4001 26.2451 36.5771 25.4221C35.7541 24.5991 34.6378 24.1367 33.4739 24.1367H7.14248C5.97856 24.1367 4.86231 24.5991 4.03929 25.4221C3.21627 26.2451 2.75391 27.3614 2.75391 28.5253Z" stroke="white" stroke-width="4.38857" stroke-linecap="round" stroke-linejoin="round"/>
    <path d="M33.4736 15.3598V13.1655C33.4736 12.5835 33.7048 12.0254 34.1163 11.6139C34.5278 11.2024 35.086 10.9712 35.6679 10.9712H57.6108C58.1927 10.9712 58.7509 11.2024 59.1624 11.6139C59.5739 12.0254 59.8051 12.5835 59.8051 13.1655V57.0512C59.8051 57.6332 59.5739 58.1913 59.1624 58.6028C58.7509 59.0143 58.1927 59.2455 57.6108 59.2455H40.0565" stroke="white" stroke-width="4.38857" stroke-linecap="round" stroke-linejoin="round"/>
    <path d="M46.6396 30.7197H59.8054M50.4796 21.394C50.3342 21.394 50.1946 21.3362 50.0917 21.2333C49.9889 21.1305 49.9311 20.9909 49.9311 20.8454C49.9311 20.7 49.9889 20.5604 50.0917 20.4575C50.1946 20.3547 50.3342 20.2969 50.4796 20.2969C50.6251 20.2969 50.7647 20.3547 50.8675 20.4575C50.9704 20.5604 51.0282 20.7 51.0282 20.8454C51.0282 20.9909 50.9704 21.1305 50.8675 21.2333C50.7647 21.3362 50.6251 21.394 50.4796 21.394Z" stroke="white" stroke-width="4.38857" stroke-linecap="round" stroke-linejoin="round"/>
    </g>
    <defs>
    <clipPath id="clip0_1_9301">
    <rect width="61.44" height="61.44" fill="white" transform="translate(0.55957)"/>
    </clipPath>
    </defs>
    </svg>
    