<svg width="62" height="62" viewBox="0 0 62 62" fill="none" xmlns="http://www.w3.org/2000/svg">
    <g clip-path="url(#clip0_1_9295)">
    <path d="M42.5794 3.84C43.5978 3.84 44.5745 4.24457 45.2947 4.96471C46.0148 5.68485 46.4194 6.66157 46.4194 7.68V53.76C46.4194 54.7784 46.0148 55.7551 45.2947 56.4753C44.5745 57.1954 43.5978 57.6 42.5794 57.6H19.5394C18.5209 57.6 17.5442 57.1954 16.8241 56.4753C16.1039 55.7551 15.6994 54.7784 15.6994 53.76V7.68C15.6994 6.66157 16.1039 5.68485 16.8241 4.96471C17.5442 4.24457 18.5209 3.84 19.5394 3.84H42.5794ZM19.5394 0C17.5025 0 15.5491 0.809141 14.1088 2.24942C12.6685 3.6897 11.8594 5.64314 11.8594 7.68V53.76C11.8594 55.7969 12.6685 57.7503 14.1088 59.1906C15.5491 60.6309 17.5025 61.44 19.5394 61.44H42.5794C44.6162 61.44 46.5697 60.6309 48.01 59.1906C49.4502 57.7503 50.2594 55.7969 50.2594 53.76V7.68C50.2594 5.64314 49.4502 3.6897 48.01 2.24942C46.5697 0.809141 44.6162 0 42.5794 0L19.5394 0Z" fill="white"/>
    <path d="M31.0597 53.7601C32.0782 53.7601 33.0549 53.3555 33.775 52.6354C34.4952 51.9152 34.8997 50.9385 34.8997 49.9201C34.8997 48.9016 34.4952 47.9249 33.775 47.2048C33.0549 46.4846 32.0782 46.0801 31.0597 46.0801C30.0413 46.0801 29.0646 46.4846 28.3444 47.2048C27.6243 47.9249 27.2197 48.9016 27.2197 49.9201C27.2197 50.9385 27.6243 51.9152 28.3444 52.6354C29.0646 53.3555 30.0413 53.7601 31.0597 53.7601Z" fill="white"/>
    </g>
    <defs>
    <clipPath id="clip0_1_9295">
    <rect width="61.44" height="61.44" fill="white" transform="translate(0.339844)"/>
    </clipPath>
    </defs>
    </svg>
    