<svg width="62" height="62" viewBox="0 0 62 62" fill="none" xmlns="http://www.w3.org/2000/svg">
    <path
        d="M48.6401 7.68018H12.8001C10.7633 7.68018 8.80982 8.48932 7.36954 9.9296C5.92926 11.3699 5.12012 13.3233 5.12012 15.3602V35.8402C5.12012 37.877 5.92926 39.8305 7.36954 41.2708C8.80982 42.711 10.7633 43.5202 12.8001 43.5202H28.1601V48.6402H17.9201C17.2412 48.6402 16.59 48.9099 16.1099 49.39C15.6298 49.8701 15.3601 50.5212 15.3601 51.2002C15.3601 51.8791 15.6298 52.5303 16.1099 53.0104C16.59 53.4905 17.2412 53.7602 17.9201 53.7602H43.5201C44.1991 53.7602 44.8502 53.4905 45.3303 53.0104C45.8104 52.5303 46.0801 51.8791 46.0801 51.2002C46.0801 50.5212 45.8104 49.8701 45.3303 49.39C44.8502 48.9099 44.1991 48.6402 43.5201 48.6402H33.2801V43.5202H48.6401C50.677 43.5202 52.6304 42.711 54.0707 41.2708C55.511 39.8305 56.3201 37.877 56.3201 35.8402V15.3602C56.3201 13.3233 55.511 11.3699 54.0707 9.9296C52.6304 8.48932 50.677 7.68018 48.6401 7.68018ZM51.2001 35.8402C51.2001 36.5191 50.9304 37.1703 50.4503 37.6504C49.9702 38.1305 49.3191 38.4002 48.6401 38.4002H12.8001C12.1212 38.4002 11.47 38.1305 10.9899 37.6504C10.5098 37.1703 10.2401 36.5191 10.2401 35.8402V15.3602C10.2401 14.6812 10.5098 14.0301 10.9899 13.55C11.47 13.0699 12.1212 12.8002 12.8001 12.8002H48.6401C49.3191 12.8002 49.9702 13.0699 50.4503 13.55C50.9304 14.0301 51.2001 14.6812 51.2001 15.3602V35.8402Z"
        fill="white" />
</svg>
    